<svg width="24" height="25" viewBox="0 0 24 25" fill="none" xmlns="http://www.w3.org/2000/svg">
<mask id="mask0_3_110" style="mask-type:alpha" maskUnits="userSpaceOnUse" x="0" y="0" width="24" height="25">
<rect width="24" height="24" transform="matrix(-1 0 0 1 24 0.952118)" fill="#D9D9D9"/>
</mask>
<g mask="url(#mask0_3_110)">
<path d="M16 11.9521C15.7167 11.9521 15.4792 11.8563 15.2875 11.6646C15.0958 11.473 15 11.2355 15 10.9521C15 10.6688 15.0958 10.4313 15.2875 10.2396C15.4792 10.048 15.7167 9.95212 16 9.95212C16.2833 9.95212 16.5208 10.048 16.7125 10.2396C16.9042 10.4313 17 10.6688 17 10.9521C17 11.2355 16.9042 11.473 16.7125 11.6646C16.5208 11.8563 16.2833 11.9521 16 11.9521ZM12 11.9521C11.7167 11.9521 11.4792 11.8563 11.2875 11.6646C11.0958 11.473 11 11.2355 11 10.9521C11 10.6688 11.0958 10.4313 11.2875 10.2396C11.4792 10.048 11.7167 9.95212 12 9.95212C12.2833 9.95212 12.5208 10.048 12.7125 10.2396C12.9042 10.4313 13 10.6688 13 10.9521C13 11.2355 12.9042 11.473 12.7125 11.6646C12.5208 11.8563 12.2833 11.9521 12 11.9521ZM8 11.9521C7.71667 11.9521 7.47917 11.8563 7.2875 11.6646C7.09583 11.473 7 11.2355 7 10.9521C7 10.6688 7.09583 10.4313 7.2875 10.2396C7.47917 10.048 7.71667 9.95212 8 9.95212C8.28333 9.95212 8.52083 10.048 8.7125 10.2396C8.90417 10.4313 9 10.6688 9 10.9521C9 11.2355 8.90417 11.473 8.7125 11.6646C8.52083 11.8563 8.28333 11.9521 8 11.9521ZM22 22.9521V4.95212C22 4.40212 21.8042 3.93128 21.4125 3.53962C21.0208 3.14795 20.55 2.95212 20 2.95212H4C3.45 2.95212 2.97917 3.14795 2.5875 3.53962C2.19583 3.93128 2 4.40212 2 4.95212V16.9521C2 17.5021 2.19583 17.973 2.5875 18.3646C2.97917 18.7563 3.45 18.9521 4 18.9521H18L22 22.9521ZM18.85 16.9521H4V4.95212H20V18.0771L18.85 16.9521Z" fill="white"/>
</g>
</svg>
