<svg width="24" height="25" viewBox="0 0 24 25" fill="none" xmlns="http://www.w3.org/2000/svg">
<mask id="mask0_7_168" style="mask-type:alpha" maskUnits="userSpaceOnUse" x="0" y="0" width="24" height="25">
<rect y="0.5" width="24" height="24" fill="#D9D9D9"/>
</mask>
<g mask="url(#mask0_7_168)">
<path d="M8.30775 23C7.80909 23 7.38309 22.8234 7.02975 22.4703C6.67659 22.1169 6.5 21.6909 6.5 21.1923V17.5385H8V18.75H18V6.25H8V7.4615H6.5V3.80775C6.5 3.30908 6.67659 2.88308 7.02975 2.52975C7.38309 2.17658 7.80909 2 8.30775 2H17.6923C18.1909 2 18.6169 2.17658 18.9703 2.52975C19.3234 2.88308 19.5 3.30908 19.5 3.80775V21.1923C19.5 21.6909 19.3234 22.1169 18.9703 22.4703C18.6169 22.8234 18.1909 23 17.6923 23H8.30775ZM8 20.25V21.1923C8 21.2693 8.03209 21.3398 8.09625 21.4038C8.16025 21.4679 8.23075 21.5 8.30775 21.5H17.6923C17.7693 21.5 17.8398 21.4679 17.9038 21.4038C17.9679 21.3398 18 21.2693 18 21.1923V20.25H8ZM4.4 17.1538L3.34625 16.1L9.19625 10.25H5.25V8.75H11.75V15.25H10.25V11.3038L4.4 17.1538ZM8 4.75H18V3.80775C18 3.73075 17.9679 3.66025 17.9038 3.59625C17.8398 3.53208 17.7693 3.5 17.6923 3.5H8.30775C8.23075 3.5 8.16025 3.53208 8.09625 3.59625C8.03209 3.66025 8 3.73075 8 3.80775V4.75Z" fill="white"/>
</g>
</svg>
