<svg width="24" height="24" viewBox="0 0 24 24" fill="none" xmlns="http://www.w3.org/2000/svg">
<mask id="mask0_28_38" style="mask-type:alpha" maskUnits="userSpaceOnUse" x="0" y="0" width="24" height="24">
<rect width="24" height="24" fill="#D9D9D9"/>
</mask>
<g mask="url(#mask0_28_38)">
<path d="M8.30769 22.5C7.80902 22.5 7.38302 22.3234 7.02969 21.9703C6.67652 21.6169 6.49994 21.1909 6.49994 20.6923V17.0385H7.99994V18.25H17.9999V5.75H7.99994V6.9615H6.49994V3.30775C6.49994 2.80908 6.67652 2.38308 7.02969 2.02975C7.38302 1.67658 7.80902 1.5 8.30769 1.5H17.6922C18.1909 1.5 18.6169 1.67658 18.9702 2.02975C19.3234 2.38308 19.4999 2.80908 19.4999 3.30775V20.6923C19.4999 21.1909 19.3234 21.6169 18.9702 21.9703C18.6169 22.3234 18.1909 22.5 17.6922 22.5H8.30769ZM7.99994 19.75V20.6923C7.99994 20.7693 8.03202 20.8398 8.09619 20.9038C8.16019 20.9679 8.23069 21 8.30769 21H17.6922C17.7692 21 17.8397 20.9679 17.9037 20.9038C17.9679 20.8398 17.9999 20.7693 17.9999 20.6923V19.75H7.99994ZM4.39994 16.6538L3.34619 15.6L9.19619 9.75H5.24994V8.25H11.7499V14.75H10.2499V10.8038L4.39994 16.6538ZM7.99994 4.25H17.9999V3.30775C17.9999 3.23075 17.9679 3.16025 17.9037 3.09625C17.8397 3.03208 17.7692 3 17.6922 3H8.30769C8.23069 3 8.16019 3.03208 8.09619 3.09625C8.03202 3.16025 7.99994 3.23075 7.99994 3.30775V4.25Z" fill="#050505"/>
</g>
</svg>
