<svg width="28" height="29" viewBox="0 0 28 29" fill="none" xmlns="http://www.w3.org/2000/svg">
<mask id="mask0_7_143" style="mask-type:alpha" maskUnits="userSpaceOnUse" x="0" y="0" width="28" height="29">
<rect y="0.5" width="28" height="28" fill="#D9D9D9"/>
</mask>
<g mask="url(#mask0_7_143)">
<path d="M14 19.1667L8.16667 13.3333L9.8 11.6417L12.8333 14.675V5.16666H15.1667V14.675L18.2 11.6417L19.8333 13.3333L14 19.1667ZM7.00001 23.8333C6.35834 23.8333 5.80903 23.6049 5.35209 23.1479C4.89514 22.691 4.66667 22.1417 4.66667 21.5V18H7.00001V21.5H21V18H23.3333V21.5C23.3333 22.1417 23.1049 22.691 22.6479 23.1479C22.191 23.6049 21.6417 23.8333 21 23.8333H7.00001Z" fill="#1C1B1F"/>
</g>
</svg>
