<svg width="11" height="11" viewBox="0 0 11 11" fill="none" xmlns="http://www.w3.org/2000/svg">
<path d="M5.98115 10.7528C5.11183 10.7528 4.34337 10.6334 3.67575 10.3948C3.00814 10.159 2.44706 9.81099 1.99251 9.35076C1.53797 8.89053 1.19422 8.32661 0.961265 7.659C0.72831 6.99139 0.611833 6.22718 0.611833 5.36639C0.611833 4.534 0.729731 3.78968 0.965526 3.13343C1.20416 2.47718 1.54933 1.92036 2.00104 1.46298C2.45558 1.00275 3.00672 0.651898 3.65445 0.410421C4.30501 0.168944 5.04081 0.0482049 5.86183 0.0482049C6.66013 0.0482049 7.35899 0.178887 7.95842 0.44025C8.5607 0.698773 9.06354 1.04963 9.46695 1.49281C9.8732 1.93315 10.1772 2.42889 10.3789 2.98002C10.5834 3.53116 10.6857 4.09934 10.6857 4.68457C10.6857 5.0965 10.6658 5.51411 10.626 5.93741C10.5863 6.36071 10.5025 6.74991 10.3746 7.10502C10.2468 7.4573 10.0493 7.74139 9.78229 7.9573C9.51808 8.17321 9.16013 8.28116 8.70842 8.28116C8.50956 8.28116 8.29081 8.24991 8.05217 8.18741C7.81354 8.12491 7.60189 8.02122 7.41723 7.87633C7.23257 7.73144 7.1232 7.53684 7.08911 7.29252H7.03797C6.96979 7.4573 6.86467 7.61355 6.72263 7.76127C6.58342 7.909 6.40019 8.0269 6.17291 8.11497C5.94848 8.20303 5.67433 8.24139 5.35047 8.23002C4.98115 8.21582 4.65587 8.13343 4.37462 7.98286C4.09337 7.82946 3.85757 7.62207 3.66723 7.36071C3.47973 7.0965 3.33769 6.7911 3.24109 6.44451C3.14734 6.09508 3.10047 5.71866 3.10047 5.31525C3.10047 4.93173 3.15729 4.58088 3.27092 4.26269C3.38456 3.94451 3.54223 3.6661 3.74394 3.42747C3.94848 3.18883 4.18712 2.99849 4.45984 2.85644C4.73541 2.71156 5.03229 2.62207 5.35047 2.58798C5.63456 2.55957 5.89308 2.57235 6.12604 2.62633C6.35899 2.67747 6.55075 2.75559 6.70132 2.86071C6.85189 2.96298 6.94706 3.07661 6.98683 3.20161H7.03797V2.72434H7.94138V6.57661C7.94138 6.81525 8.00814 7.02548 8.14166 7.2073C8.27519 7.38911 8.46979 7.48002 8.72547 7.48002C9.01524 7.48002 9.23683 7.38059 9.39024 7.18173C9.54649 6.98286 9.65303 6.67605 9.70984 6.26127C9.7695 5.8465 9.79933 5.31525 9.79933 4.66752C9.79933 4.28684 9.74678 3.91184 9.64166 3.54252C9.53939 3.17036 9.38314 2.82235 9.17291 2.49849C8.96553 2.17463 8.70274 1.88911 8.38456 1.64195C8.06638 1.3948 7.6928 1.20161 7.26382 1.06241C6.83769 0.920364 6.35331 0.849341 5.8107 0.849341C5.14308 0.849341 4.54507 0.953035 4.01666 1.16042C3.49109 1.36497 3.04365 1.66468 2.67433 2.05957C2.30786 2.45161 2.02803 2.92889 1.83484 3.49139C1.6445 4.05105 1.54933 4.68741 1.54933 5.40048C1.54933 6.12491 1.6445 6.76838 1.83484 7.33088C2.02803 7.89338 2.31212 8.36781 2.68712 8.75417C3.06496 9.14053 3.53229 9.43315 4.08911 9.63201C4.64592 9.83372 5.28797 9.93457 6.01524 9.93457C6.32774 9.93457 6.63598 9.90474 6.93996 9.84508C7.24394 9.78542 7.5124 9.72008 7.74536 9.64906C7.97831 9.57803 8.14592 9.52548 8.2482 9.49139L8.48683 10.2755C8.3107 10.3493 8.08058 10.4232 7.79649 10.4971C7.51524 10.5709 7.21411 10.632 6.89308 10.6803C6.5749 10.7286 6.27092 10.7528 5.98115 10.7528ZM5.48683 7.36071C5.86751 7.36071 6.17575 7.284 6.41155 7.13059C6.64734 6.97718 6.81922 6.74565 6.92717 6.43599C7.03513 6.12633 7.08911 5.73571 7.08911 5.26411C7.08911 4.78684 7.02945 4.41468 6.91013 4.14764C6.79081 3.88059 6.61467 3.69309 6.38172 3.58514C6.14876 3.47718 5.86183 3.42321 5.52092 3.42321C5.19706 3.42321 4.92007 3.50843 4.68996 3.67889C4.46269 3.8465 4.28797 4.07093 4.16581 4.35218C4.04649 4.63059 3.98683 4.93457 3.98683 5.26411C3.98683 5.62775 4.03513 5.97008 4.13172 6.2911C4.22831 6.60928 4.38598 6.86781 4.60473 7.06667C4.82348 7.26269 5.11751 7.36071 5.48683 7.36071Z" fill="#D9D9D9"/>
</svg>
