<svg width="16" height="17" viewBox="0 0 16 17" fill="none" xmlns="http://www.w3.org/2000/svg">
<mask id="mask0_31_67" style="mask-type:alpha" maskUnits="userSpaceOnUse" x="0" y="0" width="16" height="17">
<rect y="0.0112305" width="16" height="16" fill="#D9D9D9"/>
</mask>
<g mask="url(#mask0_31_67)">
<path d="M7.99992 11.3446C8.92214 11.3446 9.70825 11.0196 10.3583 10.3696C11.0083 9.71957 11.3333 8.93346 11.3333 8.01124C11.3333 7.08902 11.0083 6.30291 10.3583 5.65291C9.70825 5.00291 8.92214 4.67791 7.99992 4.67791C7.0777 4.67791 6.29159 5.00291 5.64159 5.65291C4.99159 6.30291 4.66659 7.08902 4.66659 8.01124C4.66659 8.93346 4.99159 9.71957 5.64159 10.3696C6.29159 11.0196 7.0777 11.3446 7.99992 11.3446ZM7.99992 14.6779C7.0777 14.6779 6.21103 14.5029 5.39992 14.1529C4.58881 13.8029 3.88325 13.3279 3.28325 12.7279C2.68325 12.1279 2.20825 11.4224 1.85825 10.6112C1.50825 9.80013 1.33325 8.93346 1.33325 8.01124C1.33325 7.08902 1.50825 6.22235 1.85825 5.41124C2.20825 4.60013 2.68325 3.89457 3.28325 3.29457C3.88325 2.69457 4.58881 2.21957 5.39992 1.86957C6.21103 1.51957 7.0777 1.34457 7.99992 1.34457C8.92214 1.34457 9.78881 1.51957 10.5999 1.86957C11.411 2.21957 12.1166 2.69457 12.7166 3.29457C13.3166 3.89457 13.7916 4.60013 14.1416 5.41124C14.4916 6.22235 14.6666 7.08902 14.6666 8.01124C14.6666 8.93346 14.4916 9.80013 14.1416 10.6112C13.7916 11.4224 13.3166 12.1279 12.7166 12.7279C12.1166 13.3279 11.411 13.8029 10.5999 14.1529C9.78881 14.5029 8.92214 14.6779 7.99992 14.6779ZM7.99992 13.3446C9.48881 13.3446 10.7499 12.8279 11.7833 11.7946C12.8166 10.7612 13.3333 9.50013 13.3333 8.01124C13.3333 6.52235 12.8166 5.26124 11.7833 4.22791C10.7499 3.19457 9.48881 2.67791 7.99992 2.67791C6.51103 2.67791 5.24992 3.19457 4.21659 4.22791C3.18325 5.26124 2.66659 6.52235 2.66659 8.01124C2.66659 9.50013 3.18325 10.7612 4.21659 11.7946C5.24992 12.8279 6.51103 13.3446 7.99992 13.3446Z" fill="#9E00B7"/>
</g>
</svg>
